/* XPM */
static char *darkening[] = {
/* columns rows colors chars-per-pixel */
"32 32 4 1 ",
"  c #0F1A1B",
". c #141412",
"X c #162527",
"o c #1D2E30",
/* pixels */
"XXXXXXX XXXXXXX XXXXXXX XXXXXXX ",
"XXXXXXX XXXXXXX XXXXXXX XXXXXXX ",
"XXXXXXX XXXXXXX XXXXXXX XXXXXXX ",
"oooooooXoooooooXoooooooXoooooooX",
"oooooooXoooooooXoooooooXoooooooX",
"oooooooXoooooooXoooooooXoooooooX",
"oooooooXoooooooXoooooooXoooooooX",
"oooooooXoooooooXoooooooXoooooooX",
"       .       .       .       .",
"       .       .       .       .",
"       .       .       .       .",
"XXXXXXX XXXXXXX XXXXXXX XXXXXXX ",
"XXXXXXX XXXXXXX XXXXXXX XXXXXXX ",
"XXXXXXX XXXXXXX XXXXXXX XXXXXXX ",
"XXXXXXX XXXXXXX XXXXXXX XXXXXXX ",
"XXXXXXX XXXXXXX XXXXXXX XXXXXXX ",
"................................",
"................................",
"................................",
"       .       .       .       .",
"       .       .       .       .",
"       .       .       .       .",
"       .       .       .       .",
"       .       .       .       .",
"................................",
"................................",
"................................",
"................................",
"................................",
"................................",
"................................",
"................................"
};
